<?xml version="1.0" standalone="no"?>
<!DOCTYPE svg PUBLIC "-//W3C//DTD SVG 1.1//EN" "http://www.w3.org/Graphics/SVG/1.1/DTD/svg11.dtd" >
<svg xmlns="http://www.w3.org/2000/svg">
<metadata></metadata>
<defs>
<font id="ellinia_clmbold" horiz-adv-x="1446" >
<font-face units-per-em="2048" ascent="1638" descent="-410" />
<missing-glyph horiz-adv-x="845" />
<glyph horiz-adv-x="2048" />
<glyph horiz-adv-x="2048" />
<glyph unicode="&#xd;" horiz-adv-x="2048" />
<glyph unicode=" "  horiz-adv-x="845" />
<glyph unicode="&#x09;" horiz-adv-x="845" />
<glyph unicode="&#xa0;" horiz-adv-x="845" />
<glyph unicode="!" horiz-adv-x="563" d="M150 0v244h263v-244h-263zM150 451v864h263v-864h-263z" />
<glyph unicode="&#x22;" horiz-adv-x="958" d="M38 1165v150h357q1 -33 0.5 -86t-15 -178.5t-42.5 -204.5h-169v319h-131zM507 1165v150h357q1 -33 0.5 -86t-14.5 -178.5t-42 -204.5h-169v319h-132z" />
<glyph unicode="#" horiz-adv-x="1506" d="M54 338l21 151h256l47 338h-254l21 150h255l47 338h263l-47 -338h276l47 338h263l-47 -338h254l-22 -150h-254l-47 -338h252l-21 -151h-254l-48 -338h-263l48 338h-276l-49 -338h-263l49 338h-254zM594 489h276l47 338h-276z" />
<glyph unicode="$" d="M120 941q0 169 138 269.5t407 119.5v100h150v-96q105 -2 244.5 -18.5t233.5 -41.5l-29 -145q-183 51 -449 55v-369q102 -14 179 -30q177 -33 275.5 -134t98.5 -240q0 -182 -143 -291t-410 -133v-122h-150v116h-4q-283 0 -505 45l26 149q240 -43 483 -43v435 q-51 7 -175 30q-370 74 -370 344zM372 1003q0 -73 70.5 -108.5t222.5 -58.5v344q-146 -10 -219.5 -52.5t-73.5 -124.5zM815 139q146 16 223.5 66.5t77.5 130.5q0 94 -65 135t-236 72v-404z" />
<glyph unicode="%" horiz-adv-x="1593" d="M94 996q0 163 76 250.5t221 87.5q147 0 223 -87.5t76 -250.5t-76 -250.5t-223 -87.5q-145 0 -221 87.5t-76 250.5zM240 0l844 1315h271l-844 -1315h-271zM280 996q0 -226 111 -226q113 0 113 226q0 225 -113 225q-111 0 -111 -225zM908 319q0 163 75.5 251t220.5 88 q147 0 223 -88t76 -251t-76 -250.5t-223 -87.5q-145 0 -220.5 87.5t-75.5 250.5zM1094 319q0 -225 110 -225q113 0 113 225q0 226 -113 226q-110 0 -110 -226z" />
<glyph unicode="&#x26;" horiz-adv-x="1332" d="M94 470q0 117 55 214.5t146 161.5q-75 92 -75 187q0 215 227 271q47 11 197 11h286v-150h-193q-87 0 -132 -9q-126 -27 -113 -160q9 -64 74 -135l439 -474q21 40 36 79h169q-25 -104 -88 -205l173 -186l-200 -94l-118 128q-155 -109 -376 -109q-122 0 -219.5 37 t-159.5 101t-95 149t-33 183zM338 470q0 -133 82 -226.5t213 -93.5q127 0 233 77l-462 500q-66 -122 -66 -257z" />
<glyph unicode="'" horiz-adv-x="544" d="M38 1165v150h357q1 -33 0.5 -86t-15 -178.5t-42.5 -204.5h-169v319h-131z" />
<glyph unicode="(" horiz-adv-x="620" d="M94 658q0 195 55.5 366.5t153.5 290.5h261q-95 -103 -151 -277.5t-56 -379.5t56 -380t151 -278h-261q-98 119 -153.5 290.5t-55.5 367.5z" />
<glyph unicode=")" horiz-adv-x="620" d="M56 0q95 103 151 278t56 380t-56 379.5t-151 277.5h262q98 -119 153 -290t55 -367t-55 -367.5t-153 -290.5h-262z" />
<glyph unicode="*" horiz-adv-x="1328" d="M94 857l66 175l421 -134l-21 383l214 -1l-17 -386l415 136l64 -173l-439 -113l283 -293l-169 -105l-246 308l-246 -308l-169 105l285 293z" />
<glyph unicode="+" horiz-adv-x="1277" d="M94 489v178h432v385h226v-385h432v-178h-432v-414h-226v414h-432z" />
<glyph unicode="," horiz-adv-x="620" d="M150 0v207h320v-207q0 -159 -89 -263h-99v263h-132z" />
<glyph unicode="-" horiz-adv-x="1183" d="M94 489v178h996v-178h-996z" />
<glyph unicode="." horiz-adv-x="620" d="M150 0v207h320v-207h-320z" />
<glyph unicode="/" horiz-adv-x="789" d="M38 0l451 1315h263l-451 -1315h-263z" />
<glyph unicode="0" d="M94 658q0 358 143.5 517t485.5 159q339 0 484.5 -160t145.5 -516q0 -346 -147 -511.5t-483 -165.5q-173 0 -293 41t-194.5 126.5t-108 210t-33.5 299.5zM357 658q0 -281 82 -403.5t284 -122.5q198 0 282.5 123.5t84.5 402.5q0 278 -89 402t-278 124q-186 0 -276 -126.5 t-90 -399.5z" />
<glyph unicode="1" d="M188 0v150h404v1006l-404 -113v159l404 113h263v-1165h404v-150h-1071z" />
<glyph unicode="2" d="M94 0q0 230 142.5 366.5t421.5 212.5q240 66 336 136.5t96 195.5q0 118 -120 195.5t-350 77.5q-228 0 -507 -75v155q222 70 507 70q178 0 321 -35t231 -94t134.5 -132.5t46.5 -153.5q0 -59 -14.5 -109t-37 -87.5t-63.5 -70t-81 -55.5t-104 -46.5t-117 -39.5t-134 -38 q-192 -53 -285.5 -121.5t-133.5 -201.5h951v-150h-1240z" />
<glyph unicode="3" d="M113 49v156q272 -73 563 -73q196 0 305 78t109 207q0 74 -38 129.5t-106.5 87t-154 46.5t-190.5 15v151q187 7 309.5 57t122.5 127q0 74 -112.5 114t-317.5 40q-215 0 -485 -68v148q238 70 485 70q145 0 270 -20t220 -57t149 -95.5t54 -131.5q0 -183 -330 -252 q82 -13 150.5 -40t124.5 -70t87.5 -108.5t31.5 -146.5q0 -117 -53.5 -202.5t-150 -134.5t-216 -72t-265.5 -23q-307 0 -562 68z" />
<glyph unicode="4" d="M94 263q0 203 68 388t183 321t269 226.5t325 116.5h263v-902h151v-150h-151v-263h-263v263h-845zM363 413h576v774q-141 -31 -266.5 -140.5t-209 -277.5t-100.5 -356z" />
<glyph unicode="5" d="M118 62l40 145q221 -75 458 -75q212 0 343 88.5t131 260.5q0 89 -33.5 155.5t-92.5 105t-131.5 57t-159.5 18.5q-84 0 -153 -15t-157 -50h-231v563h1164v-150h-901v-259q171 62 345 62q283 0 448 -127t165 -360q0 -163 -88 -277t-240 -168.5t-356 -54.5q-190 0 -317.5 18 t-233.5 63z" />
<glyph unicode="6" d="M94 658q0 102 22.5 194t78 182t140 155t220 105t306.5 40q213 0 411 -64l-43 -143q-203 57 -370 57q-82 0 -152 -18t-120.5 -48t-91 -72.5t-66 -89t-42 -99t-23.5 -101.5t-7 -98q0 -252 94 -389t272 -137q156 0 261.5 92.5t105.5 247.5q0 149 -87.5 225.5t-245.5 82.5 q-155 7 -321 -62q-5 66 21 148q92 50 266 64q182 12 325 -40.5t224 -162t81 -257.5q0 -119 -49 -213t-135.5 -154t-200 -91t-245.5 -31q-304 0 -466.5 179t-162.5 498z" />
<glyph unicode="7" d="M94 1165v150h1259v-150q-219 -220 -345 -507.5t-189 -657.5h-263q61 375 186.5 660.5t345.5 504.5h-994z" />
<glyph unicode="8" d="M66 353q0 76 29.5 137.5t82 103.5t117.5 69t145 42q-156 33 -243.5 103.5t-87.5 191.5q0 158 156.5 255.5t457.5 97.5q302 0 458.5 -96.5t156.5 -256.5q0 -117 -87.5 -187t-249.5 -108q178 -40 279 -123.5t101 -228.5q0 -179 -172 -275.5t-486 -96.5t-485.5 96.5 t-171.5 275.5zM329 378q0 -102 109.5 -173.5t284.5 -71.5t285 71.5t110 173.5q0 114 -106.5 184.5t-288.5 70.5q-181 0 -287.5 -70t-106.5 -185zM372 981q0 -89 91.5 -146t259.5 -57q170 0 261 55.5t91 147.5q0 99 -89.5 159.5t-262.5 60.5q-171 0 -261 -60.5t-90 -159.5z " />
<glyph unicode="9" d="M94 846q0 119 49 213t135 153.5t199.5 90.5t245.5 31q231 0 388 -99t210 -284q32 -115 32 -293q0 -102 -22.5 -194.5t-78 -182t-140 -155t-220 -105.5t-306.5 -40q-213 0 -411 64l43 143q199 -56 370 -56q115 0 205 35t147 92.5t93 138t49 166t10 180.5q-3 116 -30 195 q-36 112 -127 178.5t-212 66.5q-156 0 -261 -92.5t-105 -247.5q0 -149 87.5 -226t245.5 -83q155 -7 321 62q-6 -77 -36 -155q-89 -44 -252 -57q-276 -18 -452.5 109.5t-176.5 351.5z" />
<glyph unicode=":" horiz-adv-x="620" d="M150 0v207h320v-207h-320zM150 658v206h320v-206h-320z" />
<glyph unicode=";" horiz-adv-x="620" d="M150 0v207h320v-207q0 -159 -89 -263h-99v263h-132zM150 658v206h320v-206h-320z" />
<glyph unicode="&#x3c;" horiz-adv-x="1050" d="M94 498v207l862 497v-161l-638 -370l638 -368v-303z" />
<glyph unicode="=" horiz-adv-x="1183" d="M94 319v179h996v-179h-996zM94 705v178h996v-178h-996z" />
<glyph unicode="&#x3e;" horiz-adv-x="1050" d="M94 0v162l639 370l-639 368v302l862 -497v-207z" />
<glyph unicode="?" horiz-adv-x="1334" d="M94 1139v154q204 41 455 41q343 0 517 -88t174 -284q0 -149 -128.5 -248.5t-322.5 -119.5v-143h-263v263h94q154 0 255.5 60t101.5 165q0 72 -32 121t-92.5 75.5t-133.5 37.5t-170 11q-233 0 -455 -45zM526 0v244h263v-244h-263z" />
<glyph unicode="S" d="M120 941q0 -270 370 -344q83 -17 233 -39q79 -13 128.5 -22t99 -22.5t76.5 -28.5t49.5 -36t31 -48.5t8.5 -64.5q0 -99 -114 -151.5t-331 -52.5q-246 0 -489 43l-26 -149q222 -45 505 -45q341 0 524 111t183 319q0 139 -98.5 240t-275.5 134q-125 23 -267 42 q-63 9 -103 16t-85 17.5t-72 23t-50.5 29.5t-34 39t-10.5 51q0 96 104 138.5t309 42.5q281 0 479 -55l29 145q-98 26 -247.5 43t-252.5 17q-331 0 -502 -103t-171 -290z" />
<glyph unicode="^" horiz-adv-x="916" d="M98 864l261 451h207l259 -451h-162l-131 228l-132 -228h-302z" />
<glyph unicode="_" horiz-adv-x="939" d="M-2 -188h943v-188h-943v188z" />
<glyph unicode="&#x5cf;" horiz-adv-x="1878" />
<glyph unicode="&#x5d0;" horiz-adv-x="1390" d="M56 977v150h299l569 -655q57 75 83 183.5t26 283.5v38h-131v150h394v-188q0 -161 -30 -273.5t-83.5 -184.5t-145.5 -139l167 -192h111v-150h-291l-573 661q-59 -75 -86 -185.5t-27 -287.5v-38h132v-150h-395v188q0 163 30.5 276.5t85.5 185.5t149 139l-162 188h-122z" />
<glyph unicode="&#x5d1;" horiz-adv-x="1164" d="M38 0v150h338q279 0 409 192q61 91 61 240q0 99 -29.5 170t-96.5 123t-180.5 77t-276.5 25h-225v150h263q176 0 314.5 -26.5t230 -73t151.5 -113.5t86 -144t26 -169q0 -303 -299 -451h299v-150h-1071z" />
<glyph unicode="&#x5d2;" horiz-adv-x="821" d="M38 0v150h37q174 0 270.5 117.5t96.5 296.5q0 413 -348 413h-56v150h169q116 0 211.5 -44t157.5 -120.5t95.5 -179t33.5 -219.5q0 -328 107 -564h-263q-42 94 -64 192q-58 -83 -148.5 -137.5t-197.5 -54.5h-101z" />
<glyph unicode="&#x5d3;" horiz-adv-x="1164" d="M38 977v150h1080v-150h-75q-53 -44 -86.5 -148.5t-33.5 -264.5v-564h-264v564q0 140 49 254t141 159h-811z" />
<glyph unicode="&#x5d4;" horiz-adv-x="1334" d="M75 0v564h263v-414h94v-150h-357zM75 977v150h376q294 0 469.5 -56.5t257 -179t81.5 -327.5v-564h-263v564q0 155 -63.5 243.5t-209.5 129t-404 40.5h-244z" />
<glyph unicode="&#x5d5;" horiz-adv-x="563" d="M38 977v150h394v-1127h-263v977h-131z" />
<glyph unicode="&#x5d6;" horiz-adv-x="740" d="M38 977v150h627v-150h-75q-53 -44 -86.5 -148.5t-33.5 -264.5v-564h-263v564q0 140 48.5 254t140.5 159h-358z" />
<glyph unicode="&#x5d7;" horiz-adv-x="1427" d="M38 977v150h507q294 0 469.5 -56.5t257 -179t81.5 -327.5v-564h-263v564q0 155 -51 243.5t-168.5 129t-325.5 40.5h-150v-977h-263v977h-94z" />
<glyph unicode="&#x5d8;" horiz-adv-x="1409" d="M38 977v150h394v-977h207q214 0 342 123t128 308q0 148 -111.5 263t-283.5 152v131q134 0 255.5 -44.5t210 -119.5t140.5 -179.5t52 -219.5q0 -117 -51 -220t-144 -179t-232 -120.5t-306 -44.5h-470v977h-131z" />
<glyph unicode="&#x5d9;" horiz-adv-x="544" d="M38 977v150h394v-563h-263v413h-131z" />
<glyph unicode="&#x5da;" horiz-adv-x="1183" d="M38 977v150h263q288 0 468 -75t260 -218t80 -364v-695h131v-151h-394v846q0 131 -34 223t-112.5 157t-209.5 96t-321 31h-131z" />
<glyph unicode="&#x5db;" horiz-adv-x="1146" d="M38 0v150h338q83 0 149 10.5t127.5 39t103 74t66 119t24.5 171.5q0 97 -24.5 170.5t-66 119t-103 74t-127.5 39t-149 10.5h-338v150h394q98 0 180.5 -10.5t161 -35t138 -67.5t105 -103.5t69 -148.5t23.5 -198q0 -132 -35 -231.5t-94.5 -162t-148 -101.5t-184.5 -54 t-215 -15h-394z" />
<glyph unicode="&#x5dc;" horiz-adv-x="1183" d="M-56 1353v150h357v-376h357q127 0 223 -29t152.5 -81t84.5 -118.5t28 -146.5q0 -154 -58.5 -292.5t-160 -239.5t-245.5 -160.5t-306 -59.5h-207v150h150q163 0 293 77t200.5 207.5t70.5 288.5q0 114 -67 184t-215 70h-563v376h-94z" />
<glyph unicode="&#x5dd;" horiz-adv-x="1371" d="M56 977v150h696q290 0 417 -130t127 -433v-564h-1202v376q0 206 21.5 328.5t68.5 216.5h263q-47 -94 -68.5 -216.5t-21.5 -328.5v-226h676v414q0 228 -75.5 320.5t-262.5 92.5h-639z" />
<glyph unicode="&#x5de;" d="M38 977v150h394v-94q141 104 344 104q86 0 167.5 -14t168.5 -54t150.5 -101.5t105 -165.5t41.5 -238t-29.5 -237t-74 -163.5t-106 -98.5t-117.5 -51.5t-116 -13.5h-327v150h220q28 0 55 6t61.5 21t63.5 45t54 73.5t39 112.5t14 156q0 103 -25.5 182t-63 123t-90 72 t-97.5 36.5t-94 8.5q-197 0 -344 -122v-864h-263v977h-131z" />
<glyph unicode="&#x5df;" horiz-adv-x="563" d="M38 977v150h394v-1352h132v-151h-395v1353h-131z" />
<glyph unicode="&#x5e0;" horiz-adv-x="751" d="M38 0v150h375v414q0 95 -15.5 167.5t-42 118.5t-65.5 75t-82 40.5t-95 11.5v150h58q74 0 144 -19t136 -62.5t115.5 -107.5t79.5 -160t30 -214v-564h-638z" />
<glyph unicode="&#x5e1;" horiz-adv-x="1390" d="M56 977v150h671q132 0 243.5 -34t198 -101t135.5 -176.5t49 -251.5q0 -154 -80 -283.5t-222 -205t-314 -75.5h-177q-110 0 -198.5 44t-145.5 121t-87.5 179t-30.5 220q0 200 77 357h244q-58 -155 -58 -357q0 -117 29.5 -208.5t93.5 -148.5t155 -57h39q175 0 293.5 121 t118.5 293q0 110 -32.5 191.5t-91 129t-132 70t-163.5 22.5h-615z" />
<glyph unicode="&#x5e2;" horiz-adv-x="1334" d="M38 977v150h394v-75q0 -130 4 -223t18.5 -200.5t40.5 -188t71.5 -160.5t109.5 -143q105 45 172.5 124.5t107.5 229.5t40 373v113h-132v150h395v-263q0 -325 -111 -538t-321 -302l-658 -281v178l323 137q-323 302 -323 919h-131z" />
<glyph unicode="&#x5e3;" horiz-adv-x="1277" d="M56 977v150h470q119 0 214.5 -15t184 -53.5t148 -101t94.5 -162t35 -231.5v-789h132v-151h-395v940q0 98 -24.5 171t-65.5 118.5t-102.5 74t-127.5 39t-149 10.5h-45q-85 -71 -85 -182q0 -125 66 -167q25 -19 62 -19v-139q-39 -15 -88 -12q-79 3 -137 27.5t-89 63.5 t-45.5 82.5t-14.5 91.5q0 163 118 254h-156z" />
<glyph unicode="&#x5e4;" horiz-adv-x="1240" d="M56 0v150h414q83 0 149 10.5t127.5 39t102.5 74t65.5 119t24.5 171.5t-24.5 171t-65.5 118.5t-102.5 74t-127.5 39t-149 10.5h-45q-85 -71 -85 -182q0 -125 66 -167q25 -19 62 -19v-139q-39 -15 -88 -12q-79 3 -137 27.5t-89 63.5t-45.5 82.5t-14.5 91.5q0 163 118 254 h-156v150h470q119 0 214.5 -15t184 -53.5t148 -101t94.5 -162t35 -231.5t-35 -231.5t-94.5 -162t-147.5 -101.5t-184 -54t-215 -15h-470z" />
<glyph unicode="&#x5e5;" horiz-adv-x="1341" d="M38 977v150h392q0 -196 62.5 -367.5t170.5 -286.5q24 -26 30 -35q322 167 322 539h-123v150h393q0 -117 -17 -217t-44 -172.5t-69 -134t-83.5 -102.5t-96 -77.5t-97.5 -60t-97 -49.5h-1q137 -236 137 -532v-7h131v-151h-394v158q1 194 -61 364.5t-170 287.5 q-96 103 -160 242.5t-85 300.5h-140z" />
<glyph unicode="&#x5e6;" horiz-adv-x="1305" d="M38 977v150h351q0 -158 74 -289.5t210 -211.5q227 137 289 351h-107v150h393v-75q0 -165 -117 -298t-312 -205q124 -49 218.5 -118t152.5 -161.5t59 -194.5v-75h-1174v150h887q-42 117 -143 204.5t-253 164.5q-182 93 -282.5 201t-136.5 257h-109z" />
<glyph unicode="&#x5e7;" horiz-adv-x="1352" d="M38 977v150h652q132 0 243.5 -34t197.5 -101t135 -176.5t49 -251.5q0 -154 -80 -283.5t-222 -205t-314 -75.5h-79v150h26q172 0 289 121t117 293q0 110 -32 191.5t-90 129t-130.5 70t-160.5 22.5h-601zM132 -376v1128h263v-977h131v-151h-394z" />
<glyph unicode="&#x5e8;" horiz-adv-x="1258" d="M38 977v150h375q412 0 591.5 -130t179.5 -433v-564h-263v564q0 154 -62 243t-200 129.5t-377 40.5h-244z" />
<glyph unicode="&#x5e9;" horiz-adv-x="1890" d="M38 977v150h394v-977h556q285 0 443.5 125.5t158.5 361.5q0 211 -123 340h-133v150h323q196 -168 196 -477q0 -310 -194.5 -480t-538.5 -170h-951v977h-131zM701 977v150h285q196 -168 196 -477q0 -117 -45 -219.5t-124 -167.5h-273q179 139 179 387q0 195 -73 327h-145z " />
<glyph unicode="&#x5ea;" horiz-adv-x="1463" d="M19 13v160q47 -34 113 -34q89 0 118.5 69.5t29.5 263.5v505h-132v150h433q294 0 469.5 -56.5t257 -179t81.5 -327.5v-564h-264v564q0 155 -51 243.5t-168.5 129t-324.5 40.5h-38v-597q0 -121 -27.5 -190.5t-87.5 -121.5q-55 -47 -119 -63t-176 -16q-28 0 -48.5 3.5 t-31.5 7t-34 13.5z" />
<glyph unicode="&#x5f3;" horiz-adv-x="544" d="M38 1165v150h357q1 -33 0.5 -86t-15 -178.5t-42.5 -204.5h-169v319h-131z" />
<glyph unicode="&#x5f4;" horiz-adv-x="958" d="M38 1165v150h357q1 -33 0.5 -86t-15 -178.5t-42.5 -204.5h-169v319h-131zM507 1165v150h357q1 -33 0.5 -86t-14.5 -178.5t-42 -204.5h-169v319h-132z" />
<glyph unicode="&#xe000;" horiz-adv-x="939" d="M0 0z" />
</font>
</defs>
</svg>
